<svg width="28" height="16" viewBox="0 0 28 16" fill="none" xmlns="http://www.w3.org/2000/svg">
<path d="M14.608 15.3018C11.8578 15.2645 9.6084 14.6517 7.47107 13.583C5.32627 12.5143 3.39819 11.1467 1.8064 9.33822C1.51495 9.00193 1.26833 8.6208 1.02919 8.25461C0.782578 7.87348 0.804998 7.49235 1.02919 7.09627C1.47758 6.31906 2.07544 5.66889 2.71813 5.06356C4.81062 3.11307 7.20951 1.66327 9.93722 0.781435C13.2404 -0.294702 16.4837 -0.115346 19.6897 1.17004C22.3203 2.22376 24.637 3.74829 26.565 5.84078C26.9163 6.22191 27.2003 6.66282 27.4917 7.09627C27.7533 7.4774 27.7607 7.8959 27.4842 8.26956C27.1031 8.80015 26.7444 9.35317 26.2885 9.80903C23.5533 12.5517 20.3249 14.3901 16.4912 15.0926C15.7588 15.2271 15.0115 15.2645 14.608 15.3018ZM7.55328 7.6717C7.55328 11.3859 10.5575 14.3976 14.2642 14.3976C17.9634 14.3976 20.9751 11.3859 20.9751 7.7016C20.9751 3.97995 17.9634 0.975738 14.2343 0.975738C10.5575 0.975738 7.55328 3.9949 7.55328 7.6717ZM19.4506 2.01451C21.0125 3.61377 21.8719 5.48206 21.8644 7.7016C21.8569 9.91366 20.99 11.7745 19.4132 13.3214C19.5178 13.3065 19.6 13.2841 19.6822 13.2467C21.6626 12.4097 23.4562 11.2663 25.0256 9.79409C25.6159 9.24107 26.1166 8.59838 26.6472 7.99305C26.8191 7.79875 26.8116 7.5895 26.6547 7.38772C26.5052 7.19342 26.3782 6.98417 26.2213 6.80481C24.637 4.98883 22.7238 3.6063 20.579 2.53763C20.2054 2.34333 19.8242 2.18639 19.4506 2.01451ZM9.11517 2.06682C9.10022 2.0444 9.08528 2.02198 9.06286 1.99956C8.50237 2.2686 7.93441 2.51521 7.38887 2.81414C5.43089 3.86786 3.65228 5.16819 2.2249 6.89449C1.55232 7.70907 1.54484 7.6717 2.23237 8.48628C3.77932 10.3322 5.7074 11.7072 7.84473 12.7908C8.24828 12.9926 8.66678 13.172 9.07033 13.3588C7.51591 11.767 6.64902 9.90618 6.64902 7.68665C6.65649 5.47459 7.51591 3.6063 9.11517 2.06682Z" fill="#DE4F4D"/>
<path d="M17.3879 9.45039C17.3879 9.54007 17.3281 9.67458 17.2533 9.71195C16.4462 10.1304 15.6242 10.534 14.8096 10.9376C14.7872 10.9525 14.7573 10.945 14.705 10.96V9.1963C14.705 8.70307 14.6975 8.20984 14.7125 7.71661C14.7125 7.62693 14.7723 7.49242 14.847 7.45505C15.6541 7.03655 16.4761 6.633 17.2907 6.22945C17.3131 6.2145 17.343 6.22198 17.3953 6.20703V7.74651C17.3953 8.31447 17.4028 8.88243 17.3879 9.45039Z" fill="#DE4F4D"/>
<path d="M13.831 8.29963C13.7637 9.08431 13.816 9.88394 13.816 10.6686V10.9825C13.136 10.6462 12.5157 10.28 11.8581 10.0259C11.2677 9.79426 11.0584 9.46544 11.1182 8.83022C11.1855 8.05301 11.1332 7.26833 11.1332 6.49112V6.17725C11.8207 6.52101 12.4484 6.8872 13.1136 7.14876C13.6815 7.37295 13.8833 7.68683 13.831 8.29963Z" fill="#DE4F4D"/>
<path d="M16.7829 5.47465C16.3121 5.70632 15.8487 5.94546 15.3705 6.17713C14.9968 6.36396 14.6231 6.67783 14.242 6.67783C13.8758 6.67783 13.5096 6.35648 13.1435 6.17713C12.6726 5.94546 12.2018 5.70632 11.6787 5.44476C12.1346 5.22056 12.5307 5.01878 12.9193 4.82448C13.3079 4.63018 13.6965 4.4284 14.0925 4.24157C14.1748 4.20421 14.2943 4.18179 14.3691 4.21915C15.1612 4.60776 15.9459 5.00384 16.7381 5.39992C16.7605 5.41486 16.7605 5.43728 16.7829 5.47465Z" fill="#DE4F4D"/>
</svg>
