<svg width="28" height="17" viewBox="0 0 28 17" fill="none" xmlns="http://www.w3.org/2000/svg">
<path d="M14.6064 16.1377C11.8562 16.1003 9.60667 15.4875 7.46929 14.4188C5.32443 13.3501 3.3963 11.9825 1.80447 10.1739C1.51301 9.83761 1.26639 9.45647 1.02724 9.09027C0.780623 8.70913 0.803043 8.32799 1.02724 7.9319C1.47565 7.15467 2.07352 6.50449 2.71623 5.89914C4.80877 3.94859 7.20772 2.49876 9.9355 1.6169C13.2387 0.540737 16.4822 0.720098 19.6883 2.00552C22.3189 3.05926 24.6356 4.58383 26.5638 6.67637C26.915 7.05752 27.199 7.49845 27.4904 7.9319C27.752 8.31304 27.7595 8.73155 27.483 9.10522C27.1018 9.63583 26.7431 10.1889 26.2872 10.6447C23.552 13.3875 20.3235 15.2259 16.4896 15.9284C15.7573 16.0629 15.0099 16.1003 14.6064 16.1377ZM7.5515 8.50735C7.5515 12.2216 10.5558 15.2334 14.2626 15.2334C17.9619 15.2334 20.9737 12.2216 20.9737 8.53724C20.9737 4.81551 17.9619 1.81121 14.2327 1.81121C10.5558 1.81121 7.5515 4.83045 7.5515 8.50735ZM19.4491 2.85001C21.011 4.44931 21.8705 6.31765 21.863 8.53724C21.8555 10.7494 20.9886 12.6102 19.4117 14.1572C19.5164 14.1423 19.5986 14.1199 19.6808 14.0825C21.6612 13.2455 23.4548 12.102 25.0242 10.6298C25.6146 10.0768 26.1153 9.43405 26.646 8.82871C26.8178 8.6344 26.8104 8.42514 26.6534 8.22336C26.504 8.02906 26.3769 7.8198 26.22 7.64044C24.6356 5.82441 22.7224 4.44184 20.5776 3.37315C20.2039 3.17884 19.8228 3.0219 19.4491 2.85001ZM9.11343 2.90232C9.09848 2.8799 9.08354 2.85748 9.06112 2.83506C8.50061 3.1041 7.93264 3.35072 7.38708 3.64966C5.42906 4.7034 3.6504 6.00377 2.22298 7.73012C1.55038 8.54472 1.54291 8.50735 2.23046 9.32195C3.77744 11.1679 5.70557 12.543 7.84296 13.6266C8.24652 13.8284 8.66503 14.0078 9.06859 14.1946C7.51413 12.6028 6.64722 10.7419 6.64722 8.5223C6.65469 6.31018 7.51413 4.44184 9.11343 2.90232Z" fill="#DE4F4D"/>
<circle cx="14.2702" cy="8.52531" r="2.57096" fill="#DE4F4D"/>
</svg>
