<svg width="28" height="16" viewBox="0 0 28 16" fill="none" xmlns="http://www.w3.org/2000/svg">
<path d="M14.606 15.3018C11.8559 15.2645 9.60645 14.6517 7.46912 13.583C5.32432 12.5143 3.39624 11.1467 1.80445 9.33822C1.513 9.00193 1.26638 8.6208 1.02724 8.25461C0.780625 7.87348 0.803044 7.49235 1.02724 7.09627C1.47563 6.31906 2.07348 5.66889 2.71618 5.06356C4.80867 3.11307 7.20756 1.66327 9.93527 0.781435C13.2384 -0.294702 16.4818 -0.115346 19.6878 1.17004C22.3183 2.22376 24.635 3.74829 26.5631 5.84078C26.9143 6.22191 27.1983 6.66282 27.4898 7.09627C27.7513 7.4774 27.7588 7.8959 27.4823 8.26956C27.1012 8.80015 26.7424 9.35317 26.2866 9.80903C23.5514 12.5517 20.323 14.3901 16.4892 15.0926C15.7569 15.2271 15.0096 15.2645 14.606 15.3018ZM7.55132 7.6717C7.55132 11.3859 10.5555 14.3976 14.2622 14.3976C17.9615 14.3976 20.9731 11.3859 20.9731 7.7016C20.9731 3.97995 17.9615 0.975738 14.2323 0.975738C10.5555 0.975738 7.55132 3.9949 7.55132 7.6717ZM19.4486 2.01451C21.0105 3.61377 21.8699 5.48206 21.8625 7.7016C21.855 9.91366 20.9881 11.7745 19.4113 13.3214C19.5159 13.3065 19.5981 13.2841 19.6803 13.2467C21.6607 12.4097 23.4542 11.2663 25.0236 9.79409C25.614 9.24107 26.1147 8.59838 26.6453 7.99305C26.8172 7.79875 26.8097 7.5895 26.6528 7.38772C26.5033 7.19342 26.3763 6.98417 26.2193 6.80481C24.635 4.98883 22.7219 3.6063 20.5771 2.53763C20.2034 2.34333 19.8223 2.18639 19.4486 2.01451ZM9.11322 2.06682C9.09827 2.0444 9.08332 2.02198 9.0609 1.99956C8.50042 2.2686 7.93245 2.51521 7.38691 2.81414C5.42894 3.86786 3.65032 5.16819 2.22295 6.89449C1.55036 7.70907 1.54289 7.6717 2.23042 8.48628C3.77737 10.3322 5.70545 11.7072 7.84278 12.7908C8.24633 12.9926 8.66483 13.172 9.06838 13.3588C7.51396 11.767 6.64707 9.90618 6.64707 7.68665C6.65454 5.47459 7.51396 3.6063 9.11322 2.06682Z" fill="black"/>
<path d="M17.3859 9.45039C17.3859 9.54007 17.3261 9.67458 17.2514 9.71195C16.4443 10.1304 15.6222 10.534 14.8077 10.9376C14.7852 10.9525 14.7554 10.945 14.703 10.96V9.1963C14.703 8.70307 14.6956 8.20984 14.7105 7.71661C14.7105 7.62693 14.7703 7.49242 14.845 7.45505C15.6521 7.03655 16.4742 6.633 17.2888 6.22945C17.3112 6.2145 17.3411 6.22198 17.3934 6.20703V7.74651C17.3934 8.31447 17.4009 8.88243 17.3859 9.45039Z" fill="black"/>
<path d="M13.829 8.29963C13.7618 9.08431 13.8141 9.88394 13.8141 10.6686V10.9825C13.134 10.6462 12.5137 10.28 11.8561 10.0259C11.2657 9.79426 11.0565 9.46544 11.1163 8.83022C11.1835 8.05301 11.1312 7.26833 11.1312 6.49112V6.17725C11.8187 6.52101 12.4465 6.8872 13.1116 7.14876C13.6796 7.37295 13.8813 7.68683 13.829 8.29963Z" fill="black"/>
<path d="M16.7809 5.47465C16.3101 5.70632 15.8468 5.94546 15.3685 6.17713C14.9948 6.36396 14.6212 6.67783 14.2401 6.67783C13.8739 6.67783 13.5077 6.35648 13.1415 6.17713C12.6707 5.94546 12.1999 5.70632 11.6768 5.44476C12.1326 5.22056 12.5287 5.01878 12.9173 4.82448C13.3059 4.63018 13.6945 4.4284 14.0906 4.24157C14.1728 4.20421 14.2924 4.18179 14.3671 4.21915C15.1593 4.60776 15.9439 5.00384 16.7361 5.39992C16.7585 5.41486 16.7585 5.43728 16.7809 5.47465Z" fill="black"/>
</svg>
