<svg width="28" height="17" viewBox="0 0 28 17" fill="none" xmlns="http://www.w3.org/2000/svg">
<path d="M14.6083 16.1377C11.8581 16.1003 9.60863 15.4875 7.47124 14.4188C5.32639 13.3501 3.39826 11.9825 1.80643 10.1739C1.51497 9.83761 1.26835 9.45647 1.0292 9.09027C0.782576 8.70913 0.804996 8.32799 1.0292 7.9319C1.4776 7.15467 2.07547 6.50449 2.71818 5.89914C4.81072 3.94859 7.20967 2.49876 9.93746 1.6169C13.2407 0.540737 16.4841 0.720098 19.6902 2.00552C22.3208 3.05926 24.6376 4.58383 26.5657 6.67637C26.917 7.05752 27.2009 7.49845 27.4924 7.9319C27.754 8.31304 27.7614 8.73155 27.4849 9.10522C27.1038 9.63583 26.7451 10.1889 26.2892 10.6447C23.5539 13.3875 20.3254 15.2259 16.4916 15.9284C15.7592 16.0629 15.0119 16.1003 14.6083 16.1377ZM7.55345 8.50735C7.55345 12.2216 10.5577 15.2334 14.2645 15.2334C17.9639 15.2334 20.9756 12.2216 20.9756 8.53724C20.9756 4.81551 17.9639 1.81121 14.2346 1.81121C10.5577 1.81121 7.55345 4.83045 7.55345 8.50735ZM19.4511 2.85001C21.013 4.44931 21.8724 6.31765 21.865 8.53724C21.8575 10.7494 20.9906 12.6102 19.4137 14.1572C19.5183 14.1423 19.6005 14.1199 19.6827 14.0825C21.6632 13.2455 23.4568 12.102 25.0262 10.6298C25.6166 10.0768 26.1173 9.43405 26.6479 8.82871C26.8198 8.6344 26.8123 8.42514 26.6554 8.22336C26.5059 8.02906 26.3789 7.8198 26.2219 7.64044C24.6376 5.82441 22.7244 4.44184 20.5795 3.37315C20.2059 3.17884 19.8247 3.0219 19.4511 2.85001ZM9.11538 2.90232C9.10044 2.8799 9.08549 2.85748 9.06307 2.83506C8.50257 3.1041 7.93459 3.35072 7.38904 3.64966C5.43101 4.7034 3.65235 6.00377 2.22494 7.73012C1.55233 8.54472 1.54486 8.50735 2.23241 9.32195C3.7794 11.1679 5.70753 12.543 7.84491 13.6266C8.24847 13.8284 8.66698 14.0078 9.07054 14.1946C7.51608 12.6028 6.64917 10.7419 6.64917 8.5223C6.65665 6.31018 7.51608 4.44184 9.11538 2.90232Z" fill="black"/>
<circle cx="14.2721" cy="8.52531" r="2.57096" fill="black"/>
</svg>
